<svg enable-background="new 0 0 48 290" viewBox="0 0 48 290" xmlns="http://www.w3.org/2000/svg"><path d="m40.8 249.6c-9.3-9.3-24.4-9.2-33.6.1-9.3 9.3-9.2 24.4.1 33.6 9.3 9.3 24.4 9.2 33.6-.1 4.4-4.5 6.9-10.5 6.9-16.8s-2.6-12.4-7-16.8zm-16.8 39.1c-12.4 0-22.4-10-22.4-22.4 0-12.3 10-22.3 22.4-22.3s22.4 10 22.4 22.4c0 12.3-10.1 22.3-22.4 22.3z"/><path d="m43.7 260c-.6-1.7-.5-2.3-3.5-2.5l-9.2 16.9c-1-1-4.4-4.6-4.4-4.6-3-3.4-3.1-4.6-3.1-4.6-1.9-4.3-3.6-5.5-3.6-5.5-4.7-4.5-7.4-4.3-8-4.2.7.1 2.5.5 5.4 2.9 3.9 3.2 3.8 4.6 5.2 6.9.1.3.1.6 0 .9-.4 1.6-1.3 3.1-2.6 4.3l-.6.2c-2.2-.5-4.6-3.1-4.6-3.1s-4.2-4.3-5-8.1 2-4 2-4h.3c.9-.4 1.9-.4 2.8-.1 7 2.1 8.7 7.6 8.7 7.6l13.3-12.8c-9-7.1-22-5.6-29.1 3.4s-5.6 22 3.4 29.1 22 5.6 29.1-3.4c4.3-5.5 5.6-12.7 3.5-19.3zm-13.8 17.9s-1.4 1.8-3.6.1c-1.3-.9-2.4-1.9-3.4-3.1-.5-.5.1-.6.1-.6 1.4-.9 2.4-2.3 2.9-3.9.1-.8.5-.3.5-.3 1 .9 1.9 1.8 2.8 2.9 2.4 2.9.7 4.9.7 4.9z"/><g fill="#d9d7d8"><path d="m37.1 221.4v10.2h-26.2v-10.2c0-8.2 5.6-13.9 13-13.9h.1c7.4 0 13.1 5.7 13.1 13.9zm-13.1-7.9c-4.1-.2-7.7 3-7.9 7.1v.8 4.4h15.8v-4.4c.2-4.1-2.9-7.6-7-7.9-.3 0-.5 0-.9 0z"/><path d="m37.1 183.7-8.4 5.6v4.5h8.4v5.8h-26.2v-12c0-6.2 3.2-9.9 8.6-9.9h.1c3.7-.2 7 2.1 8.1 5.6l9.3-6.3v6.7zm-17.2-.1c-2.5 0-3.8 1.7-3.8 4.5v5.7h7.5v-5.8c0-2.8-1.5-4.4-3.7-4.4z"/><path d="m37.5 157.3c0 8.1-6 13.9-13.5 13.9-7.5 0-13.5-6.1-13.5-13.5 0-.1 0-.3 0-.4 0-8.1 6-13.9 13.4-13.9h.1c7.5 0 13.5 6 13.5 13.5zm-13.5-7.9c-4.4-.1-8.1 3.4-8.2 7.8v.1c0 4.3 3.5 7.8 7.8 7.9h.4c4.4.2 8.1-3.3 8.2-7.7 0-.1 0-.2 0-.3 0-4.3-3.5-7.8-7.8-7.9-.1.1-.2.1-.4.1z"/><path d="m29.2 125.9v4.4h7.8v5.8h-26.1v-10.7c0-6.2 3.7-10 9-10h.1c6.1-.1 9.2 4.6 9.2 10.5zm-9.1-4.8c-2.6 0-4 1.8-4 4.7v4.5h8v-4.6c0-2.9-1.7-4.6-4-4.6z"/><path d="m37.1 91.3-11.1 8.1 3.1 3h8v5.8h-26.2v-5.8h11.4l-11.4-10.5v-7l11.1 10.7 15.1-11.2z"/><path d="m37.1 77.9h-26.2v-5.8h26.2z"/><path d="m37.5 50.5c.1 7.3-5.7 13.3-13 13.5-.2 0-.3 0-.5 0-7.3.1-13.4-5.7-13.5-13.1 0-.2 0-.4 0-.6-.2-3.9 1.3-7.6 4-10.3l4.2 3.7c-1.8 1.7-2.9 4.2-3 6.7 0 4.4 3.7 7.6 8.1 7.6h.5c4.1.1 7.6-3.2 7.8-7.3.1-3.1-1.1-5-3.1-7.1l3.7-3.7c3.2 2.6 5 6.5 4.8 10.6z"/><path d="m37.1 15.5-11.1 8.1 3.1 3h8v5.8h-26.2v-5.7h11.4l-11.4-10.7v-6.9l11.1 10.7 15.1-11.2z"/></g></svg>