<svg height="32" viewBox="0 0 32 32" width="32" xmlns="http://www.w3.org/2000/svg" xmlns:xlink="http://www.w3.org/1999/xlink"><mask id="a" fill="#fff"><path d="m0 0h28v28h-28z" fill="#fff" fill-rule="evenodd"/></mask><path d="m13.9337869 22.7420896s-1.3999711.638889-2.2273202-1.0613222c-.8279767-1.6989015-1.0756279-2.9187644-1.0756279-2.9187644-.1640547-.44749.2289918-.3480035.2289918-.3480035 1.2970304-.055865 2.6236192-.963715 2.9221131-1.4048838.2984938-.4429912.3808921-.0011959.3808921-.0011959s.1363223.1303518.7822697 2.5976969c.6472598 2.4667186-1.0113186 3.1364729-1.0113186 3.1364729m12.6419096-8.9668833-10.8276647 7.2327316c-.2842854-.9438405-1.1837043-4.1271239-1.1837043-4.1271239-.7366768-2.9843105-.4523915-3.722629-.4523915-3.722629.2200901-3.20446778-.4085103-4.43082262-.4085103-4.43082262-1.3825671-4.13988007-3.0565524-4.88395029-3.4599271-5.00604478.4098228.26332318 1.345933 1.07874807 2.3289485 3.42923777 1.3163175 3.14666653.827349 3.92860653.9373655 5.77397583 0 0-.04565.3871261-.2495913.5316008-.202686.1443607-1.2603392 1.4510109-2.9053938 1.7335253l-.45552985-.0680518c-1.21337681-1.0472563-1.85219139-3.3187605-1.85219139-3.3187605s-1.17862575-3.92940371-.47481699-6.4154274c.7019257-2.48465697 2.45248883-1.7810761 2.45248883-1.7810761s.0752654.02448723.2078216.10859803c1.3465036.25227545 1.7389794.80318127 1.7389794.80318127 3.5422682 3.46192538 2.8281882 7.2705444 2.8281882 7.2705444l12.0486879-3.46705058c-1.8387247-4.12256817-5.6357199-7.28466731-10.4268578-8.11415812-7.63267876-1.31883685-14.89165529 3.78800422-16.21373614 11.4052993-1.32145316 7.6166117 3.79579689 14.8608466 11.42659264 16.1803098 7.6334206 1.3167868 14.8910276-3.7880611 16.2143067-11.4047867.2091911-1.2076193.472991-1.5383678-1.2730641-2.6130726" fill="#ed3323" fill-rule="evenodd" mask="url(#a)" transform="translate(2 2)"/></svg>