<svg viewBox="0 0 48 290" xmlns="http://www.w3.org/2000/svg"><path d="m40.77 249.59a23.78 23.78 0 1 0 7 16.81 23.77 23.77 0 0 0 -7-16.81zm-16.77 39.14a22.37 22.37 0 1 1 22.37-22.37 22.4 22.4 0 0 1 -22.37 22.37z" fill="#524c4e"/><path d="m43.66 260c-.56-1.72-.46-2.34-3.46-2.55l-9.2 16.9c-1-1-4.39-4.59-4.39-4.59-3-3.4-3.15-4.56-3.15-4.56-1.92-4.34-3.59-5.52-3.59-5.52-4.66-4.46-7.36-4.29-8-4.17.72.06 2.5.49 5.41 2.88 3.88 3.22 3.79 4.58 5.2 6.92a1.44 1.44 0 0 1 0 .87 8.52 8.52 0 0 1 -2.6 4.26l-.64.23c-2.24-.54-4.64-3.08-4.64-3.08s-4.25-4.34-5-8.07 2-4 2-4a1.93 1.93 0 0 1 .34 0 4.06 4.06 0 0 1 2.83-.15c7 2.1 8.7 7.57 8.7 7.57l13.33-12.83a20.7 20.7 0 1 0 6.86 9.89zm-13.8 17.88s-1.38 1.8-3.63.15a20.85 20.85 0 0 1 -3.42-3.08c-.52-.47.06-.61.06-.61a6.75 6.75 0 0 0 2.85-3.85c.08-.79.5-.27.5-.27a20.6 20.6 0 0 1 2.78 2.85c2.57 2.78.86 4.79.86 4.79z" fill="#524c4e"/><g fill="#ee4034"><path d="m37.08 221.41v10.21h-26.16v-10.21c0-8.22 5.65-13.89 13-13.89h.08c7.36 0 13.08 5.67 13.08 13.89zm-13.08-7.88a7.51 7.51 0 0 0 -7.89 7.88v4.45h15.78v-4.45a7.45 7.45 0 0 0 -7.81-7.88z"/><path d="m37.08 183.72-8.37 5.59v4.52h8.37v5.76h-26.16v-12c0-6.16 3.25-9.87 8.63-9.87h.08a8.14 8.14 0 0 1 8.11 5.61l9.34-6.33zm-17.22-.12c-2.47 0-3.75 1.71-3.75 4.52v5.71h7.52v-5.83c0-2.81-1.5-4.41-3.7-4.41z"/><path d="m37.53 157.33c0 8.07-6 13.86-13.45 13.86h-.08a13.53 13.53 0 0 1 -13.53-13.93c0-8.08 6-13.86 13.45-13.86h.08a13.52 13.52 0 0 1 13.53 13.93zm-13.53-7.92a8 8 0 0 0 -8.22 7.92 7.82 7.82 0 0 0 8.14 7.85h.08a7.94 7.94 0 0 0 8.22-7.92 7.82 7.82 0 0 0 -8.14-7.85z"/><path d="m29.23 125.87v4.38h7.85v5.75h-26.16v-10.68c0-6.25 3.7-10 9-10h.08c6.09-.02 9.23 4.68 9.23 10.55zm-9.15-4.74c-2.58 0-4 1.79-4 4.66v4.46h8v-4.56c0-2.88-1.72-4.56-4-4.56z"/><path d="m37.08 91.35-11.14 8.1 3.14 3h8v5.75h-26.16v-5.75h11.44l-11.44-10.58v-7l11.08 10.7 15.08-11.15z"/><path d="m37.08 77.89h-26.16v-5.75h26.16z"/><path d="m37.53 50.54a13.21 13.21 0 0 1 -13.45 13.46h-.08a13.3 13.3 0 0 1 -13.53-13.69 13.5 13.5 0 0 1 4-10.31l4.22 3.66a9.65 9.65 0 0 0 -3 6.69c0 4.41 3.66 7.58 8.14 7.58h.51a7.7 7.7 0 0 0 7.79-7.32c.07-3.14-1.14-5-3.06-7.13l3.7-3.67a13.4 13.4 0 0 1 4.76 10.73z"/><path d="m37.08 15.52-11.14 8.11 3.14 3h8v5.76h-26.16v-5.74h11.44l-11.44-10.65v-6.9l11.08 10.65 15.08-11.14z"/></g></svg>